<svg width="24" height="24" viewBox="0 0 24 24" fill="none" xmlns="http://www.w3.org/2000/svg">
<path fill-rule="evenodd" clip-rule="evenodd" d="M14.8028 9.14645C14.9981 9.34171 14.9981 9.65829 14.8028 9.85355L12.6818 11.9746L14.8034 14.0962C14.9986 14.2915 14.9986 14.608 14.8034 14.8033C14.6081 14.9986 14.2915 14.9986 14.0963 14.8033L11.9747 12.6817L9.85307 14.8033C9.6578 14.9986 9.34122 14.9986 9.14596 14.8033C8.9507 14.608 8.9507 14.2915 9.14596 14.0962L11.2676 11.9746L9.14652 9.85355C8.95126 9.65829 8.95126 9.34171 9.14652 9.14645C9.34178 8.95118 9.65837 8.95118 9.85363 9.14645L11.9747 11.2675L14.0957 9.14645C14.291 8.95118 14.6076 8.95118 14.8028 9.14645Z" fill="#C5C6C6"/>
</svg>