<svg width="22" height="22" viewBox="0 0 24 24" fill="none" xmlns="http://www.w3.org/2000/svg">
<mask id="path-1-inside-1_35_737" fill="white">
<path d="M3.50596 20.4821L5.375 14.875L14.875 5.375L16.6642 3.58579C17.0393 3.21071 17.5506 2.98775 18.0789 3.03558C20.6915 3.27215 21.7677 4.67734 21.9656 6.92224C22.0121 7.45063 21.7893 7.96071 21.4142 8.33579L19.625 10.125L10.125 19.625L4.51789 21.494C3.89249 21.7025 3.2975 21.1075 3.50596 20.4821Z"/>
</mask>
<path d="M14.4478 5.63477C15.1537 6.79574 15.7775 7.6722 16.5364 8.43877C17.2965 9.20641 18.1742 9.84595 19.37 10.5551L19.88 9.69494C18.7271 9.01116 17.9265 8.42145 17.2471 7.73519C16.5665 7.04787 15.9896 6.24577 15.3022 5.11523L14.4478 5.63477ZM4.92498 15.0929C5.55803 16.4003 6.17686 17.3579 6.96572 18.1378C7.75478 18.9179 8.68778 19.4944 9.91004 20.0764L10.34 19.1736C9.16928 18.6161 8.34677 18.097 7.6688 17.4267C6.99064 16.7562 6.43094 15.9085 5.82502 14.6571L4.92498 15.0929ZM5.375 14.875L4.66789 14.1679L4.50097 14.3348L4.42632 14.5588L5.375 14.875ZM3.50596 20.4821L2.55728 20.1659H2.55728L3.50596 20.4821ZM4.51789 21.494L4.20167 20.5454H4.20166L4.51789 21.494ZM10.125 19.625L10.4412 20.5737L10.6652 20.499L10.8321 20.3321L10.125 19.625ZM21.9656 6.92224L20.9694 7.01003V7.01003L21.9656 6.92224ZM18.0789 3.03558L18.1691 2.03966L18.0789 3.03558ZM16.6642 3.58579L15.9571 2.87868V2.87868L16.6642 3.58579ZM14.875 5.375L15.5821 6.08211L14.875 5.375ZM19.625 10.125L20.3321 10.8321L19.625 10.125ZM21.4142 8.33579L20.7071 7.62868L21.4142 8.33579ZM4.42632 14.5588L2.55728 20.1659L4.45465 20.7983L6.32368 15.1912L4.42632 14.5588ZM4.83412 22.4427L10.4412 20.5737L9.80877 18.6763L4.20167 20.5454L4.83412 22.4427ZM22.9617 6.83446C22.8514 5.58242 22.4844 4.42379 21.6572 3.54171C20.8215 2.65064 19.6398 2.17283 18.1691 2.03966L17.9887 4.03151C19.1306 4.1349 19.7933 4.47797 20.1984 4.90987C20.6118 5.35075 20.8819 6.01716 20.9694 7.01003L22.9617 6.83446ZM15.9571 2.87868L14.1679 4.66789L15.5821 6.08211L17.3713 4.29289L15.9571 2.87868ZM14.1679 4.66789L4.66789 14.1679L6.08211 15.5821L15.5821 6.08211L14.1679 4.66789ZM10.8321 20.3321L20.3321 10.8321L18.9179 9.41789L9.41789 18.9179L10.8321 20.3321ZM20.3321 10.8321L22.1213 9.04289L20.7071 7.62868L18.9179 9.41789L20.3321 10.8321ZM18.1691 2.03966C17.297 1.9607 16.5051 2.33074 15.9571 2.87868L17.3713 4.29289C17.5735 4.09069 17.8042 4.0148 17.9887 4.03151L18.1691 2.03966ZM20.9694 7.01003C20.9858 7.19587 20.9095 7.42624 20.7071 7.62868L22.1213 9.04289C22.669 8.49519 23.0385 7.70538 22.9617 6.83445L20.9694 7.01003ZM2.55728 20.1659C2.08823 21.573 3.42695 22.9118 4.83412 22.4427L4.20166 20.5454C4.35802 20.4932 4.50676 20.642 4.45465 20.7983L2.55728 20.1659Z" fill="white" mask="url(#path-1-inside-1_35_737)"/>
</svg>